# xmcd CD database file
#
# Track frame offsets:
#	150
#	16539
#	30348
#	44093
#	56096
#	69240
#	80551
#	92936
#	107678
#	122002
#	135479
#	148122
#	163967
#	177348
#	188854
#	205321
#	218556
#	233046
#	247471
#	262513
#	277443
#	292086
#	304521
#	320572
#	334990
#
# Disc length: 4735 seconds
#
# Revision: 1
# Processed by: cddbd v1.5.2PL0 Copyright (c) Steve Scherf et al.
# Submitted via: CDex 1.50beta10
#
DISCID=7d127d19
DTITLE=Sam Taylor - ¦è¬vºë¿ï
DYEAR=2013
DGENRE=Jazz
TTITLE0=Love Story
TTITLE1=The Thyme Song Of The Film THE Godfather
TTITLE2=Raindrops Fall On My Head
TTITLE3=By the time I get to Phoenix
TTITLE4=The White Beloved
TTITLE5=The End Of The World
TTITLE6=Harlem Nocturne
TTITLE7=Moon River
TTITLE8=Smoke Gets In Your Eyes
TTITLE9=Star Dust
TTITLE10=Love Is A Many Splendored Thing
TTITLE11=The Last Waltz
TTITLE12=La Reine De Saba
TTITLE13=Summer Time
TTITLE14=Ebb Tide
TTITLE15=Danny Boy
TTITLE16=Red Sails In The Sunset
TTITLE17=I Left My Heart In Sanfrancisco
TTITLE18=Only You
TTITLE19=Till
TTITLE20=Tenderly Besame Mucho
TTITLE21=Fascination
TTITLE22=Yesterday
TTITLE23=The Lonely One
TTITLE24=Feelings
EXTD=YEAR: 2013
EXTT0=
EXTT1=
EXTT2=
EXTT3=
EXTT4=
EXTT5=
EXTT6=
EXTT7=
EXTT8=
EXTT9=
EXTT10=
EXTT11=
EXTT12=
EXTT13=
EXTT14=
EXTT15=
EXTT16=
EXTT17=
EXTT18=
EXTT19=
EXTT20=
EXTT21=
EXTT22=
EXTT23=
EXTT24=
PLAYORDER=
